<?xml version="1.0" encoding="utf-8"?>
<!-- Svg Vector Icons : http://www.onlinewebfonts.com/icon -->
<!DOCTYPE svg PUBLIC "-//W3C//DTD SVG 1.1//EN" "http://www.w3.org/Graphics/SVG/1.1/DTD/svg11.dtd">
<svg version="1.1" xmlns="http://www.w3.org/2000/svg" xmlns:xlink="http://www.w3.org/1999/xlink" x="0px" y="0px" viewBox="0 0 1000 1000" enable-background="new 0 0 1000 1000" xml:space="preserve">
<metadata> Svg Vector Icons : http://www.onlinewebfonts.com/icon </metadata>
<g><g><path d="M990,500c0-270.2-219.8-490-490-490C229.8,10,10,229.8,10,500c0,120.8,43.5,234.8,122.9,324.4l-1.3,0.4l23.6,23.3l9.2,9.1l0.3-0.1C256,942.8,374.4,990,500,990c124.8,0,242.5-46.9,333.5-131.7l0.7,0.2l9.1-9l23.8-23.4l-1.3-0.4C946.1,735.9,990,621.5,990,500z M500,948.7c-107.6,0-209.6-37.8-290.7-107L413,770.8l-1.4-16c-0.1-1.5-0.3-3-0.5-4.6c-0.1-1-0.4-2.1-0.4-3.1v-53c27.3,16.4,57.5,25.8,89.3,25.8c31.8,0,62-9.4,89.3-25.8v53c0,1.6-0.3,3.2-0.5,4.7l-2.2,20.5l202.7,70.4C708.4,911.3,606.9,948.7,500,948.7z M369.4,596.5c-28.8-44.6-46.6-103.8-46.6-168.9c0-138.4,79.5-250.9,177.2-250.9c97.7,0,177.2,112.6,177.2,250.9c0,65.1-17.7,124.2-46.5,168.9c-10.8,16.8-23.3,31.5-37,43.7c-27.2,24.2-59.3,38.4-93.7,38.4c-34.4,0-66.5-14.2-93.7-38.4C392.6,628,380.2,613.3,369.4,596.5z M823.3,810.9l-192.6-67v-82.6c53.2-53.4,87.9-138.1,87.9-233.8c0-161.2-98.1-292.3-218.6-292.3c-120.6,0-218.6,131.1-218.6,292.3c0,95.6,34.7,180.5,88,233.8v80.8l-193.9,67.5C95.3,725.8,51.4,616.4,51.4,500C51.4,252.7,252.6,51.4,500,51.4c247.4,0,448.6,201.2,448.6,448.6C948.6,617,904.2,726.9,823.3,810.9z"/></g><g></g><g></g><g></g><g></g><g></g><g></g><g></g><g></g><g></g><g></g><g></g><g></g><g></g><g></g><g></g></g>
</svg>